# xmcd
#
# Track frame offsets:
#	150
#	15905
#	34007
#	51332
#	67255
#	83275
#	105157
#	123204
#	147380
#	170710
#	193372
#
# Disc length: 2804 seconds
#
# Revision: 0
# Processed by: cddbd v1.4PL0 Copyright (c) Steve Scherf et al.
# Submitted via: EasyCDDAExtractor 4.6.9.1
#
DISCID=8f0af20b
DTITLE=Little Milton - For Real
DYEAR=1998
DGENRE=Blues
TTITLE0=Big Boned Woman
TTITLE1=He Saw An Opening
TTITLE2=I'd Rather Be With You
TTITLE3=What Our Love Needs
TTITLE4=Hurts Me Too
TTITLE5=A Rainy Night In Georgia
TTITLE6=To Love Somebody
TTITLE7=Blues For Mr. "C"
TTITLE8=If That's What You Wanna' Do
TTITLE9=I'd Rather Go Blind
TTITLE10=Tear This House Down Tonight
EXTD=
EXTT0=
EXTT1=
EXTT2=
EXTT3=
EXTT4=
EXTT5=
EXTT6=
EXTT7=
EXTT8=
EXTT9=
EXTT10=
PLAYORDER=
